<?xml version="1.0" encoding="UTF-8"?>
<svg id="_레이어_1" data-name="레이어 1" xmlns="http://www.w3.org/2000/svg" viewBox="0 0 339 348">
  <defs>
    <style>
      .cls-1 {
        fill: #f6e335;
      }
    </style>
  </defs>
  <path d="M0,174v145.41c.04,2.01,.44,12.29,8.84,20.43,6.21,6.02,14.13,7.52,19.15,8.16,18.08,2.28,70.75,2.59,141.51,0h141.19c2.45-.26,12.59-1.59,20.42-10.38,6.6-7.39,7.65-15.67,7.89-18.45,0-48.39,0-96.78,0-145.17s0-97.21,0-145.81c-.41-2.77-2.16-12.28-10.55-19.89C321.38,1.89,313.57,.41,310.57,0H169.5c-70.45-2.22-122.83-.16-141.31,0-2.06,.02-11.61,.32-19.52,7.95C.19,16.13,0,26.57,0,28.42V174ZM68,49.6c0,.7-4.1,5.1-9.1,9.9l-9.2,8.7-9.6-9.6-9.6-9.6,9.5-9.5,9.5-9.5,9.2,9.2c5.1,5.1,9.3,9.8,9.3,10.4Zm137.4-11.2c42.4,10.2,74.9,35.5,93.6,72.6,5.5,10.9,9.3,22.1,12.1,35.1,3.2,15.1,3.2,40.2,0,54.4-2.4,10.4-7.7,25.7-11.6,33.5-3.7,7.2-13.7,21.9-19.8,29-14.8,17.4-38.8,33-61.2,39.9-20.7,6.4-23.5,6.6-82.5,6.6h-53.5V128.5h27l.3,76.7,.2,76.8h37.9c40.5,0,48.6-.6,61.6-4.7,48.5-15.2,81.2-63.5,76.5-113.1-4.6-48.5-35.4-85.2-82.7-98.4-7.5-2.1-10-2.3-64.3-2.8l-56.5-.5-.3-13.3-.3-13.3,58.3,.4c50.2,.3,59.3,.6,65.2,2.1Zm-4.9,46.3c32,9.9,55.2,33.1,63.5,63.5,6.1,22.4,3.9,45.2-6.3,65.3-12.6,25.1-38.3,44-65.9,48.5-3.5,.5-19,1-34.5,1h-28.3v-26.8l29.8-.4c28.8-.4,29.9-.5,37.5-3,25.5-8.5,43.7-33.2,43.7-59.3,0-10.9-1.7-18.1-6.7-28.5-7.7-16.1-22.1-28.2-39.8-33.7-5.6-1.7-10.6-1.8-68-1.8H63.5l-.3,76.7-.2,76.8h-27V81.9l78.8,.3c77.3,.4,78.8,.4,85.7,2.5ZM60.41,288.19c2.66,2.62,5.31,5.23,7.97,7.84-3.23,3.26-6.45,6.51-9.68,9.77l-9.2,9.2-9.5-9.5-9.5-9.5,9.5-9.5c3.11-3.09,6.22-6.18,9.33-9.28,3.67,3.65,7.36,7.31,11.08,10.97Z"/>
  <path class="cls-1" d="M68,49.6c0,.7-4.1,5.1-9.1,9.9l-9.2,8.7-9.6-9.6-9.6-9.6,9.5-9.5,9.5-9.5,9.2,9.2c5.1,5.1,9.3,9.8,9.3,10.4Z"/>
  <path class="cls-1" d="M205.4,38.4c42.4,10.2,74.9,35.5,93.6,72.6,5.5,10.9,9.3,22.1,12.1,35.1,3.2,15.1,3.2,40.2,0,54.4-2.4,10.4-7.7,25.7-11.6,33.5-3.7,7.2-13.7,21.9-19.8,29-14.8,17.4-38.8,33-61.2,39.9-20.7,6.4-23.5,6.6-82.5,6.6h-53.5V128.5h27l.3,76.7,.2,76.8h37.9c40.5,0,48.6-.6,61.6-4.7,48.5-15.2,81.2-63.5,76.5-113.1-4.6-48.5-35.4-85.2-82.7-98.4-7.5-2.1-10-2.3-64.3-2.8l-56.5-.5-.3-13.3-.3-13.3,58.3,.4c50.2,.3,59.3,.6,65.2,2.1Z"/>
  <path class="cls-1" d="M200.5,84.7c32,9.9,55.2,33.1,63.5,63.5,6.1,22.4,3.9,45.2-6.3,65.3-12.6,25.1-38.3,44-65.9,48.5-3.5,.5-19,1-34.5,1h-28.3v-26.8l29.8-.4c28.8-.4,29.9-.5,37.5-3,25.5-8.5,43.7-33.2,43.7-59.3,0-10.9-1.7-18.1-6.7-28.5-7.7-16.1-22.1-28.2-39.8-33.7-5.6-1.7-10.6-1.8-68-1.8H63.5l-.3,76.7-.2,76.8h-27V81.9l78.8,.3c77.3,.4,78.8,.4,85.7,2.5Z"/>
  <path class="cls-1" d="M60.41,288.19c2.66,2.62,5.31,5.23,7.97,7.84-3.23,3.26-6.45,6.51-9.68,9.77l-9.2,9.2-9.5-9.5-9.5-9.5,9.5-9.5c3.11-3.09,6.22-6.18,9.33-9.28,3.67,3.65,7.36,7.31,11.08,10.97Z"/>
</svg>