<?xml version="1.0" standalone="no"?>
<!DOCTYPE svg PUBLIC "-//W3C//DTD SVG 20010904//EN"
 "http://www.w3.org/TR/2001/REC-SVG-20010904/DTD/svg10.dtd">
<svg version="1.0" xmlns="http://www.w3.org/2000/svg"
 width="300.000000pt" height="308.000000pt" viewBox="0 0 300.000000 308.000000"
 preserveAspectRatio="xMidYMid meet">
<metadata>
Created by potrace 1.10, written by Peter Selinger 2001-2011
</metadata>
<g transform="translate(0.000000,308.000000) scale(0.100000,-0.100000)"
fill="#F5E335" stroke="none">
<path d="M346 2779 c-36 -33 -75 -77 -87 -96 -22 -35 -22 -36 -3 -70 10 -19
49 -64 87 -99 95 -87 101 -87 210 25 48 49 87 96 87 106 0 10 -39 57 -87 106
-109 112 -117 113 -207 28z m177 -46 c48 -48 87 -87 87 -88 0 -1 -38 -40 -85
-87 l-86 -85 -84 85 c-47 46 -85 86 -85 88 0 1 37 41 83 87 45 47 82 85 83 86
0 1 39 -38 87 -86z"/>
<path d="M752 2801 c-54 -14 -61 -33 -62 -153 0 -58 3 -114 6 -122 15 -39 35
-41 549 -47 548 -6 524 -3 693 -72 260 -107 476 -371 539 -662 25 -112 22
-311 -6 -415 -100 -379 -409 -652 -791 -700 -122 -15 -643 -13 -658 2 -9 9
-12 169 -12 658 l0 647 -23 21 c-21 20 -34 22 -140 22 -107 0 -118 -2 -137
-22 -20 -22 -20 -31 -20 -815 l0 -794 25 -24 24 -25 453 0 c249 0 487 5 528
10 413 54 780 315 963 685 92 186 130 346 130 545 0 355 -120 648 -368 895
-147 148 -303 246 -488 306 -174 57 -212 60 -712 64 -253 2 -475 0 -493 -4z
m1048 -55 c260 -61 444 -160 620 -336 180 -180 298 -403 341 -650 20 -112 17
-347 -5 -450 -59 -277 -214 -527 -442 -714 -99 -81 -270 -168 -417 -210 -140
-41 -224 -46 -712 -46 l-460 0 0 805 0 806 123 -3 123 -3 -1 -680 0 -680 182
2 c605 9 609 9 679 32 212 68 389 192 517 362 63 84 139 252 163 360 37 169
22 390 -35 543 -92 245 -270 439 -500 547 -178 83 -176 83 -746 87 l-505 3 0
125 0 126 500 -5 c429 -3 511 -7 575 -21z"/>
<path d="M340 2390 c-18 -5 -40 -16 -47 -26 -10 -14 -13 -176 -13 -811 l0
-794 25 -24 c23 -24 31 -25 133 -25 93 0 113 3 133 19 l24 19 5 659 5 658 520
3 c493 2 523 1 585 -17 73 -23 168 -76 219 -124 80 -76 140 -202 155 -328 24
-191 -95 -409 -273 -502 -103 -55 -185 -67 -444 -67 -281 0 -267 8 -267 -159
0 -107 1 -113 25 -137 l26 -26 277 5 c294 4 322 8 454 61 99 40 168 87 263
178 105 100 172 204 215 330 119 347 -7 741 -305 953 -128 91 -254 138 -416
155 -119 12 -1247 12 -1299 0z m1329 -40 c167 -21 334 -103 456 -224 270 -265
320 -658 127 -991 -48 -82 -190 -222 -279 -274 -40 -24 -114 -57 -165 -74
l-93 -31 -287 -4 -288 -4 0 116 c0 64 1 118 3 121 1 3 119 6 262 8 287 4 316
9 430 72 266 147 364 479 222 749 -41 79 -154 192 -233 234 -116 60 -133 62
-727 62 l-537 0 2 -680 3 -680 -122 0 -123 0 0 805 0 805 633 0 c379 0 666 -4
716 -10z"/>
<path d="M328 572 c-61 -62 -88 -95 -88 -112 0 -32 167 -200 198 -200 27 0
175 138 192 180 10 25 9 33 -8 57 -41 57 -160 163 -183 163 -15 0 -51 -29
-111 -88z m202 -27 l85 -85 -88 -88 -87 -87 -87 87 -88 88 85 85 c46 47 87 85
90 85 3 0 44 -38 90 -85z"/>
</g>
</svg>
